<?xml version="1.0" encoding="UTF-8"?>
<svg width="300" height="300" viewBox="0 0 300 300" xmlns="http://www.w3.org/2000/svg" xmlns:xlink="http://www.w3.org/1999/xlink">
  <title>
    Artboard
  </title>
  <defs>
    <path id="path-1" d="M0 0h150v150H0z"/>
  </defs>
  <g id="Artboard" fill="none" fill-rule="evenodd">
    <g id="Group-3" transform="translate(75 75)">
      <mask id="mask-2" fill="#fff">
        <use xlink:href="#path-1"/>
      </mask>
      <path d="M106.428 150H43.572C19.545 150 0 130.453 0 106.427V43.574C0 19.547 19.545 0 43.57 0h62.857C130.454 0 150 19.547 150 43.574v56.913a5.86 5.86 0 0 1-11.719 0V43.574c0-17.566-14.29-31.856-31.854-31.856H43.572c-17.562 0-31.852 14.29-31.852 31.856v62.853c0 17.564 14.29 31.854 31.852 31.854h62.856c10.054 0 19.312-4.599 25.397-12.625a5.854 5.854 0 0 1 8.207-1.125 5.862 5.862 0 0 1 1.129 8.211 44.039 44.039 0 0 1-15.03 12.558c-6.141 3.118-12.77 4.7-19.703 4.7M75 34.569c-22.294 0-40.43 18.137-40.43 40.431 0 22.294 18.136 40.431 40.43 40.431S115.43 97.294 115.43 75c0-22.294-18.136-40.431-40.43-40.431m0 69.143c-15.833 0-28.712-12.883-28.712-28.712 0-15.833 12.879-28.712 28.712-28.712 15.829 0 28.709 12.879 28.709 28.712 0 15.829-12.88 28.712-28.71 28.712m35.157-69.728a5.86 5.86 0 1 0 11.717.003 5.86 5.86 0 0 0-11.717-.003" id="Fill-1" fill="#C6C6C6" mask="url(#mask-2)"/>
    </g>
  </g>
</svg>
